# xmcd CD database file
#
# Track frame offsets:
#	150
#	13957
#	27882
#	41970
#	54100
#	69280
#	85650
#	102880
#	140540
#	160585
#	175762
#	195412
#	206162
#	209072
#	227122
#	229850
#
# Disc length: 3645 seconds
#
# Revision: 0
# Processed by: cddbd v1.4PL0 Copyright (c) Steve Scherf et al.
# Submitted via: NeoAudio 9.9.9
#
DISCID=d60e3b10
DTITLE=Lonely Gus and The One Night Stand - Hard Times
DYEAR=2002
DGENRE=Blues
TTITLE0=Unnecessarily long, mildly amusing Intro Skit
TTITLE1=Hard Times
TTITLE2=There's The Door
TTITLE3=Bloody Mary To The Rescue
TTITLE4=My Sister's So Mean (she drinks gasoline)
TTITLE5=Dick (Dale that is)
TTITLE6=I Miss You Babay (but I sure am glad you're gone)
TTITLE7=Cadillac
TTITLE8=Life Aint So Bad (when your best friend's a bar stool)
TTITLE9=To The Nines
TTITLE10=Don't Run A Light By A Doughnut Shop
TTITLE11=You Can't Kill Your Lover With A Shovel
TTITLE12=Yet another skit
TTITLE13=I'll Be Glad Wehn You're Dead(you rascal you)
TTITLE14=I promice this is the last skit on the album
TTITLE15=In Heaven There Is No Beer
EXTD=YEAR: 2002
EXTT0=
EXTT1=
EXTT2=
EXTT3=
EXTT4=
EXTT5=
EXTT6=
EXTT7=
EXTT8=
EXTT9=
EXTT10=
EXTT11=
EXTT12=
EXTT13=
EXTT14=
EXTT15=
PLAYORDER=
